<?xml version="1.0" encoding="utf-8"?>
<!-- Generator: Adobe Illustrator 27.5.0, SVG Export Plug-In . SVG Version: 6.00 Build 0)  -->
<svg version="1.1" xmlns="http://www.w3.org/2000/svg" xmlns:xlink="http://www.w3.org/1999/xlink" x="0px" y="0px"
	 viewBox="0 0 500 500" style="enable-background:new 0 0 500 500;" xml:space="preserve">
<g id="Background_Complete">
	<g>
		<rect y="382.398" style="fill:#EBEBEB;" width="500" height="0.25"/>
		<rect x="428.222" y="398.494" style="fill:#EBEBEB;" width="21.679" height="0.25"/>
		<rect x="310.558" y="393.306" style="fill:#EBEBEB;" width="34.109" height="0.25"/>
		<rect x="396.586" y="389.208" style="fill:#EBEBEB;" width="44.525" height="0.25"/>
		<rect x="161.877" y="394.25" style="fill:#EBEBEB;" width="11.138" height="0.25"/>
		<rect x="114.585" y="394.25" style="fill:#EBEBEB;" width="38.389" height="0.25"/>
		<rect x="66.307" y="390.028" style="fill:#EBEBEB;" width="27.695" height="0.25"/>
		<path style="fill:#EBEBEB;" d="M237.014,337.8H43.915c-3.147,0-5.708-2.561-5.708-5.708V60.66c0-3.147,2.561-5.708,5.708-5.708
			h193.099c3.146,0,5.707,2.561,5.707,5.708v271.432C242.721,335.239,240.16,337.8,237.014,337.8z M43.915,55.203
			c-3.01,0-5.458,2.448-5.458,5.458v271.432c0,3.01,2.448,5.458,5.458,5.458h193.099c3.009,0,5.457-2.448,5.457-5.458V60.66
			c0-3.009-2.448-5.458-5.457-5.458H43.915z"/>
		<path style="fill:#EBEBEB;" d="M453.31,337.8H260.212c-3.147,0-5.707-2.561-5.707-5.708V60.66c0-3.147,2.561-5.708,5.707-5.708
			H453.31c3.148,0,5.708,2.561,5.708,5.708v271.432C459.019,335.239,456.458,337.8,453.31,337.8z M260.212,55.203
			c-3.009,0-5.457,2.448-5.457,5.458v271.432c0,3.01,2.448,5.458,5.457,5.458H453.31c3.01,0,5.458-2.448,5.458-5.458V60.66
			c0-3.009-2.448-5.458-5.458-5.458H260.212z"/>
	</g>
	<g>
		<g>
			
				<rect x="64.688" y="75.277" transform="matrix(-1 -1.224647e-16 1.224647e-16 -1 292.0235 287.3845)" style="fill:#E6E6E6;" width="162.647" height="136.83"/>
			
				<rect x="60.819" y="75.277" transform="matrix(-1 -1.224647e-16 1.224647e-16 -1 286.3455 287.3845)" style="fill:#F0F0F0;" width="164.708" height="136.83"/>
			
				<rect x="64.688" y="212.107" transform="matrix(-1 -1.224647e-16 1.224647e-16 -1 292.0235 430.0819)" style="fill:#E6E6E6;" width="162.647" height="5.867"/>
			
				<rect x="54.372" y="212.107" transform="matrix(-1 -1.224647e-16 1.224647e-16 -1 273.4517 430.0819)" style="fill:#F0F0F0;" width="164.708" height="5.867"/>
			
				<rect x="80.175" y="66.756" transform="matrix(-1.836970e-16 1 -1 -1.836970e-16 286.8651 0.5195)" style="fill:#FAFAFA;" width="125.995" height="153.873"/>
			<polygon style="fill:#FFFFFF;" points="157.67,206.69 142.592,80.696 119.063,80.696 134.141,206.69 			"/>
			<path style="fill:#F0F0F0;" d="M217.601,201.298c0.214,0,0.387-0.173,0.387-0.387V84.22c0-0.214-0.173-0.387-0.387-0.387
				c-0.214,0-0.387,0.173-0.387,0.387v116.691C217.214,201.124,217.387,201.298,217.601,201.298z"/>
			<polygon style="fill:#FFFFFF;" points="129.087,206.69 114.008,80.696 104.835,80.696 119.913,206.69 			"/>
			
				<rect x="3.583" y="143.348" transform="matrix(-1.836970e-16 1 -1 -1.836970e-16 210.2724 77.1121)" style="fill:#E6E6E6;" width="125.995" height="0.688"/>
			<polygon style="opacity:0.6;fill:#EBEBEB;" points="59.537,90.911 222.184,90.911 222.683,82.801 60.036,82.801 			"/>
			<polygon style="opacity:0.6;fill:#EBEBEB;" points="59.537,104.212 222.184,104.212 222.683,96.102 60.036,96.102 			"/>
			<polygon style="opacity:0.6;fill:#EBEBEB;" points="59.537,117.514 222.184,117.514 222.683,109.404 60.036,109.404 			"/>
			<polygon style="opacity:0.6;fill:#EBEBEB;" points="59.537,130.815 222.184,130.815 222.683,122.705 60.036,122.705 			"/>
			<polygon style="opacity:0.6;fill:#EBEBEB;" points="59.537,144.117 222.184,144.117 222.683,136.006 60.036,136.006 			"/>
			<polygon style="opacity:0.6;fill:#EBEBEB;" points="59.537,157.418 222.184,157.418 222.683,149.308 60.036,149.308 			"/>
		</g>
		<g>
			<g>
				<rect x="261.973" y="98.532" style="fill:#F5F5F5;" width="162.973" height="109.451"/>
				
					<rect x="424.946" y="98.532" transform="matrix(-1 -1.224647e-16 1.224647e-16 -1 853.7239 306.5143)" style="fill:#E0E0E0;" width="3.832" height="109.451"/>
			</g>
			<rect x="286.269" y="120.07" style="fill:#FFFFFF;" width="32.501" height="49.468"/>
			<polygon style="fill:#FFFFFF;" points="337.479,182.602 304.978,182.602 305.796,133.134 338.296,133.134 			"/>
			<rect x="372.827" y="108.71" style="fill:#FFFFFF;" width="32.501" height="49.468"/>
			<polygon style="fill:#FFFFFF;" points="376.431,194.096 346.4,194.096 348.432,148.387 378.463,148.387 			"/>
		</g>
		<g>
			<g>
				<path style="fill:#F0F0F0;" d="M357.918,238.045c0,0,0.768,22.328,30.193,22.328s30.193-22.328,30.193-22.328H357.918z"/>
			</g>
			<g>
				<g>
					
						<rect x="400.856" y="269.626" transform="matrix(-1 -1.224647e-16 1.224647e-16 -1 844.3697 642.444)" style="fill:#F0F0F0;" width="42.658" height="103.192"/>
					
						<rect x="224.952" y="372.818" transform="matrix(-1 -1.224647e-16 1.224647e-16 -1 660.2754 755.2165)" style="fill:#F0F0F0;" width="210.371" height="9.58"/>
					<rect x="216.762" y="269.626" style="fill:#F5F5F5;" width="184.094" height="103.192"/>
					<rect x="233.533" y="282.179" style="fill:#F0F0F0;" width="150.552" height="31.753"/>
					<rect x="233.533" y="322.977" style="fill:#F0F0F0;" width="150.552" height="31.753"/>
					<path style="fill:#F5F5F5;" d="M291.147,287.614h35.323c1.87,0,3.4-1.53,3.4-3.4l0,0c0-1.87-1.53-3.4-3.4-3.4h-35.323
						c-1.87,0-3.4,1.53-3.4,3.4l0,0C287.747,286.084,289.277,287.614,291.147,287.614z"/>
					<path style="fill:#F5F5F5;" d="M291.147,328.411h35.323c1.87,0,3.4-1.53,3.4-3.4l0,0c0-1.87-1.53-3.4-3.4-3.4h-35.323
						c-1.87,0-3.4,1.53-3.4,3.4l0,0C287.747,326.882,289.277,328.411,291.147,328.411z"/>
				</g>
				
					<rect x="211.077" y="260.373" transform="matrix(-1 -1.224647e-16 1.224647e-16 -1 611.9334 529.9991)" style="fill:#F0F0F0;" width="189.778" height="9.253"/>
				<rect x="400.856" y="260.373" style="fill:#E6E6E6;" width="48.619" height="9.253"/>
			</g>
		</g>
		<g>
			<g>
				<rect x="64.763" y="255.62" style="fill:#F5F5F5;" width="60.274" height="126.778"/>
				
					<rect x="14.908" y="318.486" transform="matrix(-1.836970e-16 1 -1 -1.836970e-16 390.0362 247.9823)" style="fill:#E6E6E6;" width="112.238" height="1.047"/>
				<rect x="70.504" y="262.891" style="fill:#E6E6E6;" width="47.837" height="1.326"/>
			</g>
			<g>
				<rect x="126.084" y="255.62" style="fill:#F5F5F5;" width="60.274" height="126.778"/>
				
					<rect x="186.359" y="255.62" transform="matrix(-1 -1.224647e-16 1.224647e-16 -1 378.7262 638.0185)" style="fill:#E0E0E0;" width="6.009" height="126.778"/>
				
					<rect x="76.229" y="318.486" transform="matrix(-1.836970e-16 1 -1 -1.836970e-16 451.3574 186.6611)" style="fill:#E6E6E6;" width="112.238" height="1.047"/>
				
					<rect x="62.702" y="319.016" transform="matrix(-1.836970e-16 1 -1 -1.836970e-16 445.1002 193.9786)" style="fill:#E6E6E6;" width="125.718" height="1.047"/>
				<rect x="131.825" y="262.891" style="fill:#E6E6E6;" width="47.837" height="1.326"/>
			</g>
			<path style="fill:#E0E0E0;" d="M121.92,263.553L121.92,263.553c0.623,0,1.128,0.505,1.128,1.128v18.368
				c0,0.623-0.505,1.128-1.128,1.128l0,0c-0.623,0-1.128-0.505-1.128-1.128v-18.368C120.791,264.059,121.296,263.553,121.92,263.553
				z"/>
			<path style="fill:#E0E0E0;" d="M129.202,263.553L129.202,263.553c0.623,0,1.128,0.505,1.128,1.128v18.368
				c0,0.623-0.505,1.128-1.128,1.128l0,0c-0.623,0-1.128-0.505-1.128-1.128v-18.368
				C128.074,264.059,128.579,263.553,129.202,263.553z"/>
		</g>
	</g>
</g>
<g id="Background_Simple" style="display:none;">
	<g style="display:inline;">
		<path style="fill:#407BFF;" d="M59.98,144.682c-2.027-50.254,32.778-75.242,73.159-65.445
			c19.366,4.698,38.836,30.973,57.129,39.701c23.864,11.386,46.93,7.734,71.02,11.462c59.922,9.273,54.856,33.436,89.361,73.031
			c24.258,27.837,70.022,34.747,78.28,76.455c10.092,50.973-46.681,62.918-85.556,47.682c-44.649-17.5-67.55,37.422-136.794,16.572
			C138.465,323.63,62.012,220.165,59.98,144.682z"/>
		<path style="opacity:0.9;fill:#FFFFFF;" d="M59.98,144.682c-2.027-50.254,32.778-75.242,73.159-65.445
			c19.366,4.698,38.836,30.973,57.129,39.701c23.864,11.386,46.93,7.734,71.02,11.462c59.922,9.273,54.856,33.436,89.361,73.031
			c24.258,27.837,70.022,34.747,78.28,76.455c10.092,50.973-46.681,62.918-85.556,47.682c-44.649-17.5-67.55,37.422-136.794,16.572
			C138.465,323.63,62.012,220.165,59.98,144.682z"/>
	</g>
</g>
<g id="Shadow_1_">
	<ellipse id="_x3C_Path_x3E__217_" style="fill:#F5F5F5;" cx="250" cy="416.238" rx="193.889" ry="11.323"/>
</g>
<g id="Flower">
	<g>
		<path style="fill:#263238;" d="M304.138,273.134c3.461,16.284-15.102,23.172-22.806,16.011
			c-7.705-7.161-7.339-29.16-17.731-29.724C278.613,247.796,300.769,257.277,304.138,273.134z"/>
		<path style="fill:#407BFF;" d="M288.99,374.758c-0.868,0-1.617-0.649-1.722-1.532c-3.837-32.307,1.034-109.487,40.585-141.847
			c0.741-0.607,1.835-0.498,2.443,0.245c0.607,0.742,0.498,1.836-0.245,2.443c-38.436,31.448-43.099,107.06-39.335,138.75
			c0.113,0.952-0.567,1.815-1.519,1.928C289.128,374.753,289.058,374.758,288.99,374.758z"/>
		<g>
			<path style="fill:#407BFF;" d="M274.905,416.238h28.174c1.948,0,3.635-1.35,4.064-3.25l11.753-52.124
				c0.587-2.605-1.393-5.082-4.064-5.082h-51.68c-2.67,0-4.651,2.477-4.064,5.082l11.753,52.124
				C271.27,414.888,272.957,416.238,274.905,416.238z"/>
			<path style="opacity:0.6;fill:#FFFFFF;" d="M274.905,416.238h28.174c1.948,0,3.635-1.35,4.064-3.25l11.753-52.124
				c0.587-2.605-1.393-5.082-4.064-5.082h-51.68c-2.67,0-4.651,2.477-4.064,5.082l11.753,52.124
				C271.27,414.888,272.957,416.238,274.905,416.238z"/>
		</g>
		<path style="fill:#407BFF;" d="M301.039,276.378c-0.131,0-0.263-0.015-0.397-0.046c-0.933-0.218-1.513-1.151-1.295-2.085
			c0.058-0.247,5.655-24.836-2.941-39.286c-0.49-0.824-0.22-1.889,0.604-2.379c0.824-0.49,1.889-0.22,2.379,0.604
			c9.316,15.659,3.587,40.79,3.338,41.852C302.541,275.837,301.827,276.378,301.039,276.378z"/>
		<path style="fill:#407BFF;" d="M315.616,225.362c-0.699,15.694,33.381,23.188,44.3,16.55c10.92-6.638,3.21-28.056,20.868-28.161
			C351.274,201.802,316.297,210.08,315.616,225.362z"/>
		<path style="fill:#407BFF;" d="M307.372,227.652c6.479,12.791-11.331,20.338-20.525,15.372
			c-9.194-4.966-12.773-22.784-23.539-22.132C276.624,209.897,301.064,215.197,307.372,227.652z"/>
		<path style="fill:#407BFF;" d="M287.979,348.347c-0.021,0-0.042,0-0.064-0.001c-0.958-0.035-1.706-0.84-1.672-1.797
			c0.009-0.261,0.769-26.16-13.784-29.285c-0.938-0.201-1.534-1.125-1.333-2.062c0.201-0.938,1.13-1.533,2.061-1.333
			c17.394,3.735,16.569,31.621,16.525,32.807C289.678,347.612,288.908,348.347,287.979,348.347z"/>
		<path style="fill:#407BFF;" d="M283.1,311.305c4.517,8.375-9.337,18.59-16.19,16.966c-6.853-1.623-8.987-14.617-17.23-11.484
			C260.217,304.984,278.701,303.15,283.1,311.305z"/>
		<path style="fill:#407BFF;" d="M289.789,323.848c-0.124,0-0.25-0.013-0.376-0.042c-0.936-0.207-1.527-1.133-1.32-2.07
			c0.26-1.178,6.6-28.946,25.539-36.334c0.892-0.349,1.9,0.093,2.248,0.986c0.349,0.893-0.093,1.899-0.986,2.248
			c-17.23,6.722-23.351,33.58-23.411,33.85C291.303,323.296,290.586,323.848,289.789,323.848z"/>
		<path style="fill:#407BFF;" d="M310.595,276.323c-13.655,7.141-4.44,22.396,6.193,23.032c10.633,0.637,25.306-12.09,33.469-6.062
			C346.917,277.516,323.891,269.37,310.595,276.323z"/>
	</g>
</g>
<g id="Character_1_">
	<g>
		<g>
			<path style="fill:#407BFF;" d="M197.773,216.09L197.773,216.09c-0.906-0.666-1.102-1.952-0.436-2.858l86.062-117.077
				c0.666-0.906,1.952-1.103,2.859-0.437l0,0c0.906,0.666,1.103,1.952,0.436,2.859l-86.062,117.077
				C199.965,216.56,198.679,216.757,197.773,216.09z"/>
			
				<rect x="324.585" y="151.78" transform="matrix(0.5925 -0.8056 0.8056 0.5925 10.6941 325.7219)" style="fill:#407BFF;" width="5.406" height="1.022"/>
			<path style="fill:#407BFF;" d="M332.566,145.974l-0.824-0.605c2.12-2.884,1.498-6.954-1.385-9.073l-21.919-16.112l0.605-0.824
				l21.919,16.112C334.299,137.924,335.019,142.636,332.566,145.974z"/>
			<g>
				<path style="fill:#FFFFFF;" d="M295.955,183.094l-95.987-70.559c-1.751-1.287-2.127-3.75-0.84-5.501l28.227-38.399
					c1.287-1.751,3.75-2.127,5.501-0.84l95.987,70.559c1.751,1.287,2.127,3.75,0.84,5.501l-28.227,38.399
					C300.168,184.005,297.706,184.381,295.955,183.094z"/>
				<path style="fill:#407BFF;" d="M298.276,184.37c-0.94,0-1.853-0.297-2.624-0.864l-95.987-70.559
					c-0.957-0.704-1.583-1.737-1.762-2.912c-0.179-1.174,0.109-2.347,0.813-3.304l28.227-38.399
					c0.704-0.957,1.737-1.582,2.912-1.762c1.172-0.178,2.347,0.109,3.304,0.813l95.987,70.558c0.957,0.704,1.583,1.737,1.762,2.912
					c0.179,1.174-0.109,2.347-0.813,3.304l-28.227,38.399c-0.704,0.957-1.737,1.583-2.912,1.762
					C298.729,184.353,298.502,184.37,298.276,184.37z M296.258,182.682c0.737,0.543,1.643,0.766,2.544,0.626
					c0.904-0.138,1.7-0.62,2.242-1.356l28.227-38.399c1.118-1.521,0.791-3.668-0.73-4.786l-95.987-70.559
					c-0.736-0.541-1.641-0.764-2.544-0.626c-0.904,0.138-1.7,0.62-2.242,1.357l-28.227,38.399c-0.542,0.737-0.764,1.641-0.626,2.544
					c0.138,0.904,0.62,1.7,1.356,2.242L296.258,182.682z"/>
			</g>
			<g>
				<path style="fill:#263238;" d="M218.37,96.426l4.715,3.031c-0.44,0.804-0.652,1.508-0.634,2.111
					c0.032,0.979,0.501,1.802,1.407,2.468c0.676,0.497,1.314,0.722,1.913,0.673s1.053-0.281,1.36-0.7
					c0.292-0.397,0.379-0.881,0.261-1.451c-0.118-0.57-0.709-1.461-1.773-2.672c-1.734-1.994-2.76-3.704-3.076-5.129
					c-0.324-1.43-0.044-2.744,0.837-3.944c0.579-0.788,1.355-1.364,2.326-1.729c0.972-0.365,2.063-0.411,3.275-0.138
					c1.211,0.273,2.616,0.996,4.212,2.17c1.959,1.44,3.185,2.902,3.678,4.387c0.493,1.484,0.253,3.093-0.721,4.826l-4.658-3.021
					c0.389-0.777,0.509-1.462,0.359-2.056c-0.149-0.593-0.559-1.135-1.228-1.627c-0.551-0.405-1.052-0.593-1.502-0.565
					c-0.451,0.029-0.799,0.21-1.045,0.545c-0.179,0.244-0.226,0.548-0.139,0.913c0.075,0.366,0.466,0.944,1.174,1.733
					c1.743,1.968,2.894,3.51,3.454,4.625c0.56,1.115,0.796,2.161,0.706,3.137c-0.089,0.976-0.441,1.882-1.056,2.719
					c-0.723,0.983-1.661,1.689-2.814,2.119c-1.154,0.43-2.376,0.501-3.667,0.212c-1.291-0.289-2.679-0.979-4.164-2.071
					c-2.608-1.917-4.044-3.746-4.31-5.488C216.996,99.765,217.365,98.071,218.37,96.426z"/>
				<path style="fill:#263238;" d="M235.966,105.382c1.84-2.503,3.969-3.939,6.389-4.308c2.419-0.369,4.873,0.361,7.362,2.19
					c2.552,1.876,4.014,4.006,4.388,6.391c0.373,2.385-0.347,4.811-2.161,7.279c-1.317,1.792-2.699,3.04-4.145,3.743
					c-1.446,0.703-2.974,0.955-4.582,0.755c-1.609-0.2-3.264-0.925-4.965-2.176c-1.729-1.271-2.957-2.598-3.686-3.982
					s-1.006-2.93-0.834-4.64C233.904,108.924,234.649,107.173,235.966,105.382z M240.688,108.885
					c-1.138,1.548-1.668,2.871-1.589,3.97c0.078,1.099,0.612,2.013,1.602,2.74c1.018,0.748,2.049,0.996,3.094,0.744
					c1.045-0.252,2.197-1.236,3.458-2.951c1.061-1.443,1.545-2.712,1.452-3.805c-0.093-1.094-0.637-2.007-1.635-2.74
					c-0.955-0.702-1.971-0.927-3.046-0.677C242.948,106.417,241.836,107.323,240.688,108.885z"/>
				<path style="fill:#263238;" d="M248.839,126.635l11.27-15.331l7.896,5.804c1.464,1.076,2.491,2.024,3.08,2.844
					c0.589,0.82,0.871,1.744,0.846,2.772c-0.026,1.028-0.397,2.03-1.115,3.006c-0.625,0.851-1.346,1.451-2.162,1.801
					c-0.816,0.35-1.683,0.484-2.599,0.401c-0.584-0.053-1.287-0.259-2.109-0.616c0.426,0.604,0.698,1.094,0.818,1.472
					c0.082,0.254,0.136,0.708,0.165,1.363c0.028,0.655,0.016,1.135-0.036,1.44l-0.971,6.129l-5.353-3.935l0.912-6.547
					c0.125-0.842,0.129-1.446,0.011-1.812c-0.167-0.488-0.467-0.891-0.899-1.209l-0.418-0.308l-4.574,6.222L248.839,126.635z
					 M260.301,121.014l1.997,1.468c0.216,0.159,0.685,0.397,1.409,0.713c0.36,0.168,0.734,0.196,1.122,0.084
					c0.388-0.112,0.706-0.335,0.952-0.67c0.364-0.495,0.486-0.99,0.367-1.486c-0.119-0.496-0.611-1.061-1.475-1.697l-2.081-1.53
					L260.301,121.014z"/>
				<path style="fill:#263238;" d="M265.498,138.881l11.27-15.331l7.896,5.804c1.464,1.076,2.491,2.024,3.08,2.844
					c0.589,0.82,0.871,1.744,0.846,2.772c-0.025,1.028-0.397,2.03-1.115,3.006c-0.625,0.851-1.346,1.451-2.162,1.801
					c-0.816,0.35-1.683,0.484-2.599,0.401c-0.584-0.053-1.287-0.259-2.109-0.616c0.426,0.604,0.698,1.094,0.818,1.472
					c0.082,0.254,0.136,0.708,0.165,1.363c0.028,0.655,0.016,1.135-0.036,1.44l-0.971,6.129l-5.353-3.935l0.912-6.547
					c0.125-0.842,0.129-1.446,0.011-1.812c-0.167-0.488-0.467-0.891-0.899-1.209l-0.418-0.307l-4.574,6.222L265.498,138.881z
					 M276.96,133.26l1.997,1.468c0.216,0.159,0.685,0.397,1.409,0.713c0.36,0.168,0.734,0.196,1.122,0.084
					c0.388-0.112,0.705-0.335,0.951-0.67c0.364-0.495,0.486-0.99,0.367-1.486c-0.119-0.496-0.611-1.061-1.475-1.697l-2.081-1.53
					L276.96,133.26z"/>
				<path style="fill:#263238;" d="M290.896,133.936l5.262,3.868l-0.713,7.443l6.897-2.897l5.234,3.848l-12.51,4.528l-4.72,6.421
					l-4.748-3.49l4.72-6.421L290.896,133.936z"/>
				<path style="fill:#263238;" d="M308.831,147.12l4.549,3.344l-2.568,3.493l-6.037,6.371l-2.813-2.068l4.301-7.647L308.831,147.12
					z M300.478,158.812l4.246,3.121l-2.76,3.754l-4.246-3.121L300.478,158.812z"/>
			</g>
		</g>
		<g>
			<path style="fill:#B55B52;" d="M223.451,146.339c0.388,0.841,0.651,1.443,0.943,2.139c0.286,0.675,0.538,1.349,0.797,2.021
				c0.517,1.342,0.956,2.7,1.398,4.057c0.844,2.724,1.57,5.486,2.126,8.3c0.294,1.401,0.526,2.824,0.755,4.245
				c0.181,1.436,0.378,2.863,0.487,4.318c0.301,2.886,0.286,5.847,0.192,8.799l-0.016,0.505c-0.01,0.32-0.062,0.652-0.139,0.949
				c-0.645,2.438-1.588,4.083-2.541,5.537c-0.962,1.443-1.96,2.647-2.97,3.774c-2.016,2.254-4.149,4.116-6.29,5.897
				c-2.165,1.751-4.371,3.366-6.634,4.875c-2.282,1.506-4.541,2.905-7.02,4.207c-1.874,0.984-4.19,0.262-5.173-1.611
				c-0.774-1.473-0.493-3.221,0.574-4.378l0.083-0.088l5.18-5.6c1.708-1.876,3.389-3.747,4.96-5.639
				c1.588-1.866,3.061-3.791,4.295-5.623c0.615-0.913,1.156-1.824,1.522-2.628c0.368-0.788,0.585-1.519,0.524-1.63l-0.155,1.454
				c-0.195-2.321-0.441-4.639-0.864-6.982c-0.419-2.335-0.918-4.677-1.53-7.011c-0.621-2.328-1.279-4.662-2.047-6.961
				c-0.376-1.151-0.782-2.292-1.181-3.424l-0.618-1.674l-0.578-1.513l-0.15-0.393c-1.504-3.941,0.471-8.355,4.412-9.859
				C217.563,140.961,221.778,142.732,223.451,146.339z"/>
			<path style="fill:#263238;" d="M173.742,89.197c-6.475,6.207-5.663,36.512-2.977,65.356
				c2.685,28.844,27.087,24.068,36.152,11.562c12.046-16.619-1.495-41.496,0.443-51.291c2.109-10.657,3.691-22.706-9.088-30.008
				C184.371,76.872,172.336,82.868,173.742,89.197z"/>
			<path style="fill:#263238;" d="M169.185,157.292c-0.018,0-0.037-0.001-0.055-0.003c-0.301-0.03-0.521-0.299-0.49-0.6
				c0.807-8.011,0.07-18.41-0.642-28.466c-1.339-18.907-2.604-36.765,5.885-39.546c0.287-0.095,0.597,0.063,0.691,0.35
				c0.094,0.287-0.063,0.597-0.35,0.691c-7.677,2.516-6.384,20.772-5.133,38.428c0.715,10.103,1.456,20.549,0.639,28.653
				C169.701,157.081,169.462,157.292,169.185,157.292z"/>
			<path style="fill:#B55B52;" d="M181.156,150.83l-2.466,7.011c-0.828,2.364-1.612,4.739-2.385,7.096
				c-0.742,2.362-1.469,4.718-2.109,7.046c-0.604,2.327-1.178,4.627-1.563,6.826l0.021-1.141c-0.049,1.09,0.066,2.321,0.48,3.664
				c0.224,0.664,0.481,1.362,0.794,2.073c0.324,0.709,0.717,1.418,1.138,2.141c0.85,1.446,1.889,2.892,3.038,4.314
				c0.577,0.708,1.173,1.423,1.801,2.11l1.831,1.998l0.399,0.436c1.418,1.547,1.313,3.951-0.234,5.369
				c-1.127,1.033-2.711,1.255-4.035,0.704c-0.658-0.275-1.134-0.465-1.68-0.714c-0.523-0.244-1.035-0.497-1.547-0.759
				c-1.009-0.538-2.005-1.11-2.972-1.743c-1.938-1.262-3.784-2.735-5.524-4.456c-1.708-1.743-3.339-3.735-4.637-6.114
				c-0.643-1.194-1.212-2.473-1.681-3.83c-0.462-1.366-0.758-2.819-0.946-4.307c-0.021-0.172-0.027-0.342-0.018-0.509l0.039-0.633
				c0.367-5.964,1.478-11.388,2.861-16.695c0.679-2.653,1.483-5.248,2.323-7.826c0.869-2.596,1.749-5.065,2.861-7.701
				c1.64-3.89,6.123-5.715,10.013-4.075c3.739,1.576,5.57,5.779,4.25,9.558L181.156,150.83z"/>
			<path style="fill:#407BFF;" d="M177.967,135.785c-7.975,1.503-9.662,4.763-15.535,16.872c1.772,7.968,12.91,14.972,12.91,14.972
				S191.117,146.085,177.967,135.785z"/>
			<path style="fill:#407BFF;" d="M165.324,150.874c-0.131,4.249,0.286,9.386,1.24,19.5c0.644,8.567-1.49,24.853,1.208,26.045
				h43.215c0.871-12.268,0.55-20.717,8.31-48.108c1.799-6.351-2.213-12.45-8.62-13.1c-1.712-0.174-3.528-0.319-5.392-0.409
				c-7.246-0.35-13.187-0.583-19.623,0.001c-2.133,0.193-4.343,0.462-6.457,0.755C171.578,136.618,165.558,143.26,165.324,150.874z"
				/>
			<path style="fill:#FFFFFF;" d="M185.012,145.335c-0.227,0.804-0.698,1.375-1.053,1.275c-0.355-0.1-0.459-0.833-0.232-1.638
				c0.227-0.804,0.698-1.375,1.053-1.275C185.135,143.797,185.239,144.53,185.012,145.335z"/>
			<path style="fill:#FFFFFF;" d="M183.416,152.01c-0.102,0.829-0.482,1.465-0.848,1.42c-0.366-0.045-0.58-0.754-0.477-1.584
				c0.103-0.829,0.482-1.465,0.848-1.42C183.305,150.472,183.518,151.181,183.416,152.01z"/>
			<path style="fill:#B55B52;" d="M201.132,113.386c-0.191,6.538-1.03,17.204,3.074,21.417c0,0-5.98-0.898-18.678,6.955
				c-3.677-5.273-0.945-6.954-0.945-6.954c3.615-0.661,6.779-4.347,4.8-8.918L201.132,113.386z"/>
			<path style="fill:#FFFFFF;" d="M188.197,140.177c4.182,0.595,5.492,6.912,5.492,6.912s10.045-7.105,13.228-12.115
				c-1.491-0.781-3.668-2.329-3.668-2.329S190.639,137.763,188.197,140.177z"/>
			<path style="fill:#FFFFFF;" d="M184.222,139.504c0,0-3.32,0.718-4.986,5.337c-0.957-9.209,3.409-10.056,3.409-10.056
				s1.312-0.936,3.781-0.547C183.11,135.988,184.222,139.504,184.222,139.504z"/>
			<path style="opacity:0.2;" d="M193.784,121.954l-1.652,1.006l-2.749,2.924c0.767,1.753,0.767,3.385,0.263,4.754
				c3.133-1.216,6.298-3.669,7.131-6.32c0.006-0.019,0.012-0.038,0.017-0.057C197.335,122.486,195.37,120.989,193.784,121.954z"/>
			<path style="fill:#B55B52;" d="M199.027,98.077c3.019,9.924,4.502,14.051,1.608,21.077c-4.354,10.57-16.813,12.684-22.641,4.001
				c-5.246-7.815-9.302-22.732-1.547-30.577C184.088,84.849,196.008,88.152,199.027,98.077z"/>
			<path style="fill:#263238;" d="M185.496,107.055c0.289,0.822,0.112,1.666-0.397,1.886c-0.508,0.219-1.155-0.269-1.445-1.091
				c-0.289-0.822-0.112-1.666,0.397-1.886S185.207,106.233,185.496,107.055z"/>
			<path style="fill:#263238;" d="M175.98,111.329c0.289,0.822,0.112,1.666-0.397,1.886c-0.508,0.219-1.155-0.269-1.445-1.091
				c-0.29-0.822-0.112-1.666,0.397-1.886C175.044,110.019,175.691,110.507,175.98,111.329z"/>
			<path style="fill:#263238;" d="M174.776,110.187l-2.069,0.237C172.708,110.425,174.209,111.553,174.776,110.187z"/>
			<path style="fill:#A02724;" d="M178.779,110.863c0,0-0.074,4.108-0.926,6.443c1.384,0.569,2.967-0.647,2.967-0.647
				L178.779,110.863z"/>
			<path style="fill:#263238;" d="M185.324,116.777c0.443-0.087,0.919-0.14,1.427-0.148c0.137-0.002,0.242,0.11,0.235,0.252
				c-0.007,0.14-0.121,0.256-0.263,0.259c-3.715,0.056-5.596,2.754-5.615,2.781c-0.081,0.12-0.238,0.156-0.348,0.08
				c-0.111-0.075-0.136-0.233-0.054-0.352C180.779,119.544,182.292,117.371,185.324,116.777z"/>
			<path style="fill:#FFB573;" d="M204.149,104.576c0.063,2.336-0.843,4.28-2.037,5.391c-1.797,1.672-3.986-0.243-4.567-3.012
				c-0.524-2.492-0.22-6.365,2.104-6.935C201.937,99.459,204.077,101.905,204.149,104.576z"/>
			<path style="fill:#263238;" d="M190.983,88.304c-7.5,8.055,2.556,27.136,1.531,40.86c-1.256,16.819,9.052,19.282,15.544,5.814
				c-4.827-12.738,0.159-31.82-1.141-38.507C205.427,88.804,196.328,84.558,190.983,88.304z"/>
			<path style="fill:#263238;" d="M181.287,100.346c0.131-0.017,0.266,0.019,0.37,0.111c1.62,1.442,3.402,0.889,3.422,0.883
				c0.264-0.083,0.536,0.062,0.602,0.332c0.066,0.269-0.097,0.557-0.365,0.644c-0.093,0.029-2.329,0.726-4.339-1.065
				c-0.2-0.178-0.211-0.501-0.023-0.72C181.044,100.425,181.165,100.363,181.287,100.346z"/>
			<path style="fill:#263238;" d="M171.417,108.573c-0.113,0.055-0.243,0.067-0.366,0.023c-0.252-0.091-0.376-0.385-0.277-0.656
				c0.998-2.715,3.215-3.344,3.31-3.369c0.266-0.072,0.525,0.094,0.58,0.371c0.054,0.276-0.117,0.558-0.382,0.631
				c-0.087,0.023-1.801,0.537-2.594,2.696C171.637,108.409,171.537,108.515,171.417,108.573z"/>
			<path style="fill:#263238;" d="M184.292,105.913l-2.069,0.237C182.223,106.15,183.725,107.279,184.292,105.913z"/>
			<path style="fill:#407BFF;" d="M211.078,135.264c7.035,1.087,9.856,3.227,15.604,17.365
				c-2.609,5.273-14.297,18.621-14.297,18.621S202.28,145.56,211.078,135.264z"/>
			<path style="fill:#263238;" d="M218.321,408.993c4.175-6.67,4.371-8.508,7.086-12.012c2.32-3.008,2.333-2.775,5.183-5.352
				c1.888-1.707,0.325-4.159-1.733-5.196c-1.603-0.808-3.356-1.518-5.3-2.579l-7.421,6.728c1.291,3.827,0.576,11.794-2.247,17.088
				C211.88,411.46,216.645,411.66,218.321,408.993z"/>
			<path style="fill:#263238;" d="M167.771,196.42c0,0-1.039,53.907-2.227,90.692c-0.238,7.379,1.364,14.686,4.659,21.293
				c13.013,26.091,45.392,82.821,45.392,82.821c1.304,1.142,7.504-5.535,7.962-7.371c0,0-17.618-71.692-33.238-87.757
				c20.757-57.445,15.118-99.677,15.118-99.677H167.771z"/>
			<g style="opacity:0.2;">
				<path d="M205.616,198.024l-20.363,1.435c0,0,3.319,59.215,6.561,92.415C208.595,243.032,206.36,205.987,205.616,198.024z"/>
				<path d="M192.504,298.665c1.818,17.022,3.691,39.181,4.546,59.642c6.682,11.983,12.673,22.575,15.938,28.326
					c1.588-7.131,3.297-15.642,4.655-24.667C211.618,341.11,201.87,311.098,192.504,298.665z"/>
			</g>
			<g>
				<path style="fill:#407BFF;" d="M211.616,388.427c0.732,0.92,2.03,2.565,2.946,3.821c0.303,0.415,0.873,0.502,1.294,0.207
					c3.159-2.204,7.342-6.73,8.699-8.235c0.269-0.298,0.314-0.732,0.117-1.082l-2.119-3.766c-0.289-0.514-0.975-0.635-1.423-0.253
					l-9.385,8.019C211.361,387.467,211.302,388.033,211.616,388.427z"/>
				<path style="opacity:0.3;fill:#FFFFFF;" d="M211.616,388.427c0.732,0.92,2.03,2.565,2.946,3.821
					c0.303,0.415,0.873,0.502,1.294,0.207c3.159-2.204,7.342-6.73,8.699-8.235c0.269-0.298,0.314-0.732,0.117-1.082l-2.119-3.766
					c-0.289-0.514-0.975-0.635-1.423-0.253l-9.385,8.019C211.361,387.467,211.302,388.033,211.616,388.427z"/>
			</g>
			<path style="fill:#263238;" d="M191.404,416.228c8.006,0,11.06-0.124,15.572-0.275c3.864-0.138,4.742,0.344,7.844,0.275
				c2.591-0.055,2.72-2.531,2.181-5.379c-0.269-1.43-0.729-3.178-1.069-5.488h-12.161c-1.937,3.15-9.061,5.516-13.628,6.122
				C185.785,412.06,188.212,416.228,191.404,416.228z"/>
			<path style="fill:#263238;" d="M179.065,196.42c0,0,12.579,69.23,17.186,100.608c4.838,32.954,10.8,86.441,7.521,108.333
				c1.776,1.089,8.362,1.155,12.161,0c0,0,16.745-71.866,3.163-106.875c9.135-77.116-4.374-81.132-8.109-102.065H179.065z"/>
			<g>
				<path style="fill:#407BFF;" d="M203.268,400.802c-0.136,1.104-0.411,3.028-0.831,4.496c-0.152,0.53,0.161,1.021,0.686,1.106
					c4.386,0.713,10.922-0.319,12.999-0.688c0.398-0.07,0.723-0.381,0.821-0.774l1.046-4.206c0.143-0.575-0.261-1.093-0.844-1.081
					l-12.878,0.248C203.767,399.912,203.329,400.304,203.268,400.802z"/>
				<path style="opacity:0.3;fill:#FFFFFF;" d="M203.268,400.802c-0.136,1.104-0.411,3.028-0.831,4.496
					c-0.152,0.53,0.161,1.021,0.686,1.106c4.386,0.713,10.922-0.319,12.999-0.688c0.398-0.07,0.723-0.381,0.821-0.774l1.046-4.206
					c0.143-0.575-0.261-1.093-0.844-1.081l-12.878,0.248C203.767,399.912,203.329,400.304,203.268,400.802z"/>
			</g>
			<path style="fill:#263238;" d="M190.843,86.778c8.509,12.323-15.026,7.896-20.123,19.473
				C170.74,94.674,171.7,85.728,190.843,86.778z"/>
			<path style="fill:#407BFF;" d="M210.987,196.42c-12.411,2.617-38.279,8.641-43.215,0
				C170.964,194.214,203.818,194.61,210.987,196.42z"/>
			<g>
				<path style="fill:#FFFFFF;" d="M181.338,203.199c-0.822,0-1.589-0.018-2.287-0.055c-8.076-0.427-10.391-2.906-10.485-3.011
					c-0.101-0.112-0.091-0.284,0.02-0.385c0.112-0.101,0.286-0.092,0.386,0.018c0.022,0.024,2.302,2.419,10.108,2.832
					c7.901,0.418,25.597-1.772,31.003-4.295c0.137-0.064,0.3-0.005,0.364,0.132c0.064,0.137,0.005,0.3-0.132,0.364
					C205.217,201.177,190.114,203.199,181.338,203.199z"/>
				<path style="fill:#FFFFFF;" d="M178.382,222.742c-0.211,0-0.462-0.069-0.747-0.269c-4.036-2.819-0.204-16.613,1.929-20.372
					c0.059-0.105,0.18-0.159,0.297-0.132c0.118,0.026,0.204,0.126,0.214,0.246c0.155,1.928,1.436,18.877-1.217,20.399
					C178.736,222.684,178.576,222.742,178.382,222.742z M179.605,203.234c-2.108,4.583-4.987,16.463-1.656,18.79
					c0.339,0.236,0.526,0.178,0.637,0.114C180.292,221.16,180.144,210.649,179.605,203.234z"/>
				<path style="fill:#FFFFFF;" d="M182.613,219.47c-0.174,0-0.377-0.037-0.613-0.13c-4.622-1.822-3.621-13.173-2.46-17.18
					c0.033-0.114,0.136-0.194,0.255-0.198c0.095-0.002,0.226,0.07,0.266,0.182c0.55,1.536,5.313,15.06,3.264,17.046
					C183.176,219.333,182.948,219.47,182.613,219.47z M179.844,203.175c-1.071,4.648-1.484,14.141,2.357,15.655
					c0.501,0.198,0.683,0.023,0.743-0.034C184.241,217.539,181.895,209.072,179.844,203.175z"/>
				<path style="fill:#FFFFFF;" d="M175.391,212.771c-0.132,0-0.249-0.096-0.27-0.232c-0.485-3.07,2.48-9.883,4.598-10.564
					c0.143-0.046,0.298,0.032,0.345,0.177c0.046,0.144-0.033,0.298-0.177,0.345c-1.856,0.598-4.66,7.205-4.225,9.958
					c0.023,0.149-0.079,0.29-0.228,0.313C175.42,212.77,175.405,212.771,175.391,212.771z"/>
			</g>
		</g>
	</g>
</g>
</svg>
